<svg width="161" height="53" viewBox="0 0 161 53" fill="none" xmlns="http://www.w3.org/2000/svg">
    <path fill-rule="evenodd" clip-rule="evenodd" d="M43.6371 8.18243H42.9098V14.2234H40.1418V0.0808098H42.9098V6.34391L43.5563 6.06108L47.4557 0.0808098H50.6074L46.4859 6.02067L45.3948 6.78837L46.5263 7.57635L51.2338 14.2234H47.8193L43.6371 8.18243ZM0.389284 0.116671H29.65H30.0012H30.0393V0.154964V0.505951V23.5096V23.6149L30.0396 23.6185V23.6199L30.0399 23.6428V23.6436L30.0393 23.7161V23.8606V23.8989H30.0352C29.9883 25.2885 29.5619 26.7202 28.8271 28.0921C28.074 29.4981 26.9967 30.8415 25.6728 32.0123C24.2825 33.2413 22.6176 34.283 20.769 35.0078C19.0576 35.679 17.1881 36.0793 15.2322 36.1064L15.0201 36.1093H15.0196C13.0783 36.1093 11.2219 35.7594 9.51823 35.1446C7.69854 34.4881 6.05248 33.529 4.662 32.3717C3.2595 31.2047 2.11518 29.834 1.3113 28.3653C0.52981 26.9372 0.0701038 25.4159 0.00763014 23.8989H0V23.8606V23.5446V23.5096V0.505951V0.154964V0.116671H0.0382973H0.389284ZM10.8328 31.8121H11.262V30.5926L11.3082 30.3826L11.1601 30.5649L10.8852 30.7531L10.7155 30.5215L11.4194 29.9536H11.6448V31.8121H12.0647V32.1517H10.8328V31.8121ZM13.0745 31.6237C13.0745 31.5516 13.0838 31.4874 13.1023 31.4307C13.1209 31.3741 13.1471 31.3227 13.181 31.2764C13.215 31.2302 13.2551 31.1883 13.3015 31.1515C13.3478 31.1143 13.3976 31.0804 13.4512 31.0496C13.3504 30.9856 13.271 30.9121 13.2134 30.8287C13.1558 30.7455 13.1269 30.642 13.1269 30.5185C13.1269 30.4383 13.1419 30.363 13.1717 30.2931C13.2016 30.2231 13.2449 30.1624 13.3015 30.111C13.358 30.0594 13.4265 30.0193 13.5068 29.9906C13.587 29.9617 13.6777 29.9473 13.7784 29.9473C13.8711 29.9473 13.9555 29.9596 14.0316 29.9844C14.1077 30.0091 14.1731 30.0441 14.2276 30.0894C14.2821 30.1347 14.3243 30.1897 14.3542 30.2544C14.384 30.3194 14.399 30.3909 14.399 30.4691C14.399 30.5905 14.3717 30.6934 14.3172 30.7778C14.2627 30.8621 14.1828 30.9394 14.0778 31.0093C14.2013 31.0814 14.2945 31.1607 14.3573 31.247C14.4201 31.3335 14.4514 31.4447 14.4514 31.5805C14.4514 31.6732 14.4345 31.7569 14.4006 31.8322C14.3667 31.9073 14.3188 31.9716 14.257 32.0251C14.1953 32.0787 14.1212 32.1202 14.0347 32.1501C13.9482 32.1801 13.8536 32.1949 13.7505 32.1949C13.6477 32.1949 13.5545 32.1809 13.4713 32.1532C13.3879 32.1254 13.317 32.0868 13.2582 32.0375C13.1996 31.9881 13.1544 31.9284 13.1224 31.8583C13.0904 31.7884 13.0745 31.7102 13.0745 31.6237ZM14.0686 31.5836C14.0686 31.5362 14.0572 31.493 14.0347 31.4539C14.012 31.4148 13.9827 31.3793 13.9467 31.3475C13.9107 31.3155 13.8706 31.2862 13.8263 31.2594C13.782 31.2328 13.7372 31.207 13.692 31.1823C13.5952 31.2378 13.5289 31.298 13.4929 31.3629C13.4568 31.4277 13.4388 31.4921 13.4388 31.5559C13.4388 31.6383 13.4671 31.7085 13.5237 31.7673C13.5803 31.8259 13.659 31.8552 13.7598 31.8552C13.8524 31.8552 13.9271 31.8325 13.9837 31.7872C14.0403 31.742 14.0686 31.6741 14.0686 31.5836ZM13.5097 30.5246C13.5097 30.5741 13.5191 30.6173 13.5376 30.6543C13.5561 30.6914 13.5813 30.7237 13.6133 30.7515C13.6451 30.7794 13.6811 30.805 13.7213 30.8287C13.7614 30.8524 13.8031 30.8745 13.8464 30.8951C13.9698 30.7901 14.0316 30.6749 14.0316 30.5493C14.0316 30.463 14.0064 30.3976 13.956 30.3533C13.9055 30.309 13.8443 30.2869 13.7721 30.2869C13.6816 30.2869 13.6152 30.3106 13.5732 30.358C13.5308 30.4054 13.5097 30.4609 13.5097 30.5246ZM15.375 31.0681C15.375 30.6893 15.4398 30.4078 15.5694 30.2238C15.6991 30.0394 15.8854 29.9473 16.1281 29.9473C16.3874 29.9473 16.5779 30.0383 16.6995 30.2205C16.8208 30.4028 16.8815 30.6853 16.8815 31.0681C16.8815 31.4488 16.8161 31.7317 16.6855 31.9171C16.5547 32.1022 16.3679 32.1949 16.125 32.1949C15.8678 32.1949 15.6785 32.0977 15.5571 31.9031C15.4355 31.7086 15.375 31.4303 15.375 31.0681ZM15.7763 31.0681C15.7763 31.3191 15.8036 31.5132 15.8581 31.65C15.9126 31.7868 16.0027 31.8552 16.1281 31.8552C16.2496 31.8552 16.3387 31.7924 16.3952 31.667C16.4518 31.5414 16.4801 31.3418 16.4801 31.0681C16.4801 30.819 16.4535 30.6265 16.3999 30.4907C16.3464 30.3549 16.2548 30.2869 16.125 30.2869C16.0015 30.2869 15.9126 30.3507 15.8581 30.4784C15.8036 30.6059 15.7763 30.8024 15.7763 31.0681ZM19.3238 31.5497H18.9844V32.1517H18.6107V31.5497H17.6753V31.3212L18.654 29.9752H18.9844V31.2286H19.3238V31.5497ZM18.6107 30.7562L18.6386 30.4969H18.6262L18.5213 30.7192L18.2001 31.1359L18.0458 31.2532L18.2434 31.2286H18.6107V30.7562ZM10.4946 8.98111C9.58346 8.46834 9.19385 9.21543 8.29845 9.40106C7.30699 9.60666 7.04297 8.83328 6.62075 8.14315C7.31899 8.28984 7.35972 8.61812 8.27006 7.99452C8.93909 7.53643 9.7863 7.83647 10.2812 8.40019L9.73064 6.91834C11.3736 6.90504 13.2243 6.69052 14.8457 6.91834L15.0508 6.95275C16.785 7.29497 18.0933 8.77973 18.0933 10.6587C18.0933 12.0339 17.3063 13.5618 16.1554 14.3746V14.5471C17.6956 14.1937 19.4564 12.9043 19.6141 12.1799C19.3889 12.092 18.8479 11.7812 18.8546 11.7442C18.2516 11.3118 17.9929 10.4498 18.1351 9.79684C18.2774 9.14387 18.5811 8.82826 19.015 8.56522C19.3139 8.41382 19.5846 8.32198 19.9087 8.28969L28.0137 7.1465C28.052 7.42041 28.0784 7.69918 28.0916 7.97683C28.3264 12.9342 24.4962 17.145 19.5387 17.3798C17.8435 17.46 15.6567 16.5219 14.8869 14.9194C14.8468 14.926 14.8064 14.9328 14.7657 14.9379C14.4712 14.9705 14.1973 15.0208 13.9423 15.0865C13.6835 16.1643 15.8891 17.0018 18.4455 17.413L18.0361 18.0059C18.5196 17.8532 19.0345 17.7708 19.5685 17.7708C22.3787 17.7708 24.6578 20.0497 24.6578 22.8602C24.6578 25.6703 22.3787 27.9493 19.5685 27.9493C16.7584 27.9493 14.4793 25.6703 14.4793 22.8602C14.4793 22.5713 14.5038 22.2882 14.55 22.0128L14.724 22.0383L17.805 22.2476C17.6521 22.4977 17.5635 22.7917 17.5635 23.1065C17.5635 24.0173 18.3022 24.7558 19.2128 24.7558C20.1237 24.7558 20.862 24.0173 20.862 23.1065C20.862 22.2103 20.1469 21.4809 19.2562 21.4578L19.2507 21.4418L19.0483 21.4656C19.0285 21.4676 19.0084 21.47 18.9884 21.4724L16.3345 21.7843C15.1757 21.9747 14.1723 22.0513 13.3161 22.0235L9.64496 27.0316L9.1859 25.8157C6.59089 25.5978 7.48889 26.7984 8.0703 27.2898C8.1271 27.3377 8.12774 27.5384 8.07387 27.5822C7.12054 27.5093 6.28777 26.7446 6.28777 25.7487C6.28777 24.7529 7.11502 23.9018 8.13472 23.9018C8.81544 23.9018 9.40983 24.2701 9.73032 24.8183L11.3973 19.5609H11.1336L10.125 21.0108C9.53024 20.3896 9.06663 19.642 8.77942 18.812L5.96226 15.3237C5.84267 15.5939 5.65963 15.8295 5.43294 16.0131L4.87068 14.5241C3.6251 14.4622 2.85643 14.7629 3.50177 15.7096L3.77195 15.7129L3.73674 15.2452H4.51855L4.39523 16.8814L4.3962 16.893H4.39441L4.39231 16.9226H3.85714L3.85487 16.8135L3.81528 16.2875C3.10259 16.033 2.4282 15.4714 2.4282 14.5768C2.4282 13.888 2.89489 13.1922 3.55922 12.8887L3.19817 8.09431L2.32467 6.9865H3.80164C3.74631 6.37264 3.93584 5.7083 4.29673 5.17217C3.96943 5.2275 3.66713 5.40291 3.37488 5.88891C3.18178 4.83611 4.06517 3.48197 5.26872 3.68432C6.47731 3.88781 6.36485 3.53795 6.99997 3.06412C6.9547 3.45633 6.9474 3.85081 6.86075 4.19141C8.10584 4.32674 8.04904 3.87158 8.84984 3.27443C8.70672 4.5106 8.83865 5.76088 7.32175 6.11495C5.93906 6.43803 4.90589 5.62944 3.95872 6.9865H4.127H5.92883L5.05761 8.09139L4.70419 12.7811C5.00211 12.8522 5.27245 12.996 5.4946 13.1922L7.74301 14.5421L8.23598 16.3683H8.46721C8.70331 13.3113 11.2188 10.8928 14.3159 10.8087L14.1955 10.5071L11.0823 10.5215L10.4946 8.98111ZM10.3547 8.4896C10.4529 8.61601 10.5337 8.75378 10.5916 8.89739C11.9179 9.13511 14.3777 10.665 13.5568 8.4896H10.3547ZM12.5179 4.06257H13.3197V4.25502H13.5729V4.87813C13.4106 4.94515 13.2963 5.10499 13.2963 5.29144C13.2963 5.48924 13.4249 5.65654 13.6029 5.71561L13.6053 5.71642L13.6124 5.71885L13.6137 5.71902L13.618 5.72032H13.6183L13.6232 5.72177H13.6233L13.6259 5.72242L13.6337 5.72453H13.6339L13.6363 5.72518L13.6391 5.72583L13.6417 5.72648H13.6421L13.6443 5.72713L13.647 5.72761L13.6498 5.72826L13.6545 5.72924L13.655 5.7294L13.6576 5.72989L13.6603 5.73037L13.6629 5.73086L13.6639 5.73102L13.671 5.73216L13.6738 5.73265L13.6749 5.73281H13.6751L13.6785 5.73329H13.6791L13.6819 5.73378L13.6845 5.7341L13.686 5.73443L13.6874 5.73459L13.69 5.73492L13.6929 5.73524L13.6976 5.73573L13.701 5.73605L13.7038 5.73638L13.7066 5.73654L13.7121 5.73703L13.7148 5.73719H13.715L13.72 5.73751H13.7205L13.7314 5.73783H13.7317L13.7366 5.738H13.7374H13.7402H13.7429C13.9897 5.738 14.1896 5.53809 14.1896 5.29144L14.1895 5.283V5.27992L14.1892 5.27196L14.1887 5.26385C14.1883 5.25865 14.188 5.25347 14.1875 5.24844L14.1869 5.24227V5.24146L14.1859 5.23448V5.23334C14.1846 5.22393 14.1831 5.21452 14.1814 5.20527L14.1804 5.20121L14.1786 5.19327V5.19278L14.1749 5.17752L14.1728 5.16989L14.1726 5.16908L14.17 5.16L14.1695 5.15854L14.1682 5.15464C14.1461 5.08616 14.1083 5.02515 14.0588 4.97566L14.058 4.97501L14.0525 4.9695L14.047 4.9643V4.96414L14.0433 4.96089L14.041 4.95878L14.0353 4.95375L14.0352 4.95359L14.0295 4.94856L14.027 4.94661H14.0269L14.0189 4.94012L14.0186 4.93996L14.0171 4.93883C14.0123 4.93509 14.0072 4.93136 14.0022 4.92763L14.0016 4.92698L13.9982 4.92487L13.9926 4.92114L13.9918 4.92049L13.9853 4.91611L13.9836 4.91513L13.9821 4.91399C13.9766 4.91059 13.9709 4.90718 13.9652 4.90394V4.90377C13.9589 4.90036 13.9526 4.89696 13.9462 4.89371L13.9444 4.89258L13.9373 4.88901L13.9365 4.88884L13.9302 4.88576V4.76974C13.9302 4.40204 14.2537 3.91912 14.6214 3.90922L15.3036 3.89089L14.3285 6.44306L11.5398 6.45264L10.5667 3.90046L11.2148 3.90922C11.5826 3.91409 11.9059 4.40204 11.9059 4.76974V4.88641C11.8156 4.92844 11.742 4.99968 11.6969 5.08795L11.6964 5.08908L11.6928 5.0959L11.692 5.09769L11.6876 5.10726L11.6874 5.10758L11.6863 5.11034L11.6829 5.11748L11.68 5.12494L11.679 5.12754L11.6788 5.12787L11.6753 5.13761L11.6751 5.13776L11.6745 5.13971L11.6717 5.14734L11.6714 5.14799C11.6655 5.16536 11.6608 5.18321 11.6571 5.20138C11.6542 5.21566 11.6519 5.2301 11.6503 5.2447V5.24649C11.6495 5.25314 11.649 5.25963 11.6487 5.26629L11.6485 5.26855V5.27083L11.6482 5.27992L11.648 5.283L11.6479 5.29144C11.6479 5.53809 11.8478 5.738 12.0944 5.738H12.0973H12.1003H12.1009L12.1058 5.73783H12.1059L12.117 5.73751H12.1176L12.1227 5.73719L12.1254 5.73703L12.1309 5.73654L12.1337 5.73638L12.1366 5.73605L12.14 5.73573L12.1447 5.73524L12.1476 5.73492L12.1502 5.73459L12.1515 5.73443L12.153 5.7341L12.1558 5.73378L12.1583 5.73329L12.1611 5.73297L12.1626 5.73281L12.1639 5.73265L12.1665 5.73216L12.1692 5.73184L12.1736 5.73102L12.1746 5.73086L12.1772 5.73037L12.1799 5.72989L12.1825 5.7294H12.1829L12.1879 5.72826L12.1905 5.72761L12.1931 5.72713L12.1955 5.72648L12.2116 5.72242L12.2142 5.72177C12.4029 5.66936 12.5411 5.49671 12.5411 5.29144C12.5411 5.10499 12.4269 4.94515 12.2646 4.87813V4.25502H12.5179V4.06257ZM23.7147 19.4598C25.866 18.5873 27.8639 17.1291 28.3199 13.4963C27.8954 15.29 26.9636 16.2823 25.7955 16.8324C24.5458 17.4206 23.0262 17.5028 21.5677 17.5178C22.553 17.9429 23.2188 18.5542 23.7147 19.4598ZM29.2607 0.895238H0.77873V23.1203H0.781491L0.781004 23.1587L0.778572 23.408V23.5063H0.77873V23.5446C0.77873 25.0067 1.18911 26.4851 1.92938 27.8774C2.68783 29.3036 3.79272 30.6395 5.15789 31.7756C6.48087 32.8766 8.04726 33.7887 9.77965 34.4132C11.4014 34.9979 13.1691 35.3307 15.0196 35.3307H15.2233C17.0827 35.3049 18.8612 34.9238 20.4899 34.2846C22.2494 33.594 23.8346 32.602 25.1586 31.4314C26.4368 30.3012 27.4704 29.0061 28.1803 27.6578C28.8763 26.336 29.2614 24.9627 29.2614 23.6434C29.2614 23.5884 29.2619 23.574 29.2622 23.567H29.262V23.5487H29.2622V23.5479H29.2607V23.5096V23.451H29.2609L29.2567 23.1589L29.256 23.1203H29.2607V0.895238ZM130.508 43.962H127.608V52.2898H126.504V43.962H123.604V42.9777H130.508V43.962ZM116.784 42.9777H121.853V43.962H117.889V47.0084H121.52V47.9929H117.889V51.3053H121.92V52.2898H116.784V42.9777ZM114.834 43.962H111.934V52.2898H110.83V43.962H107.93V42.9777H114.834V43.962ZM104.876 45.9842L104.955 44.9199H104.902L104.33 46.0106L99.8337 52.2898H99.1817V42.9777H100.286V49.3631L100.193 50.4141H100.246L100.831 49.3232L105.328 42.9777H105.98V52.2898H104.876V45.9842ZM96.9655 51.9041C96.6995 52.1081 96.3625 52.2499 95.9545 52.3297C95.5466 52.4096 95.112 52.4495 94.6509 52.4495C94.092 52.4495 93.5688 52.3541 93.0811 52.1634C92.5933 51.9727 92.1675 51.6823 91.8038 51.292C91.4404 50.9019 91.152 50.4029 90.9393 49.7954C90.7264 49.188 90.6199 48.4674 90.6199 47.6337C90.6199 46.7645 90.7374 46.0262 90.9725 45.4187C91.2075 44.8111 91.5179 44.3146 91.9036 43.9287C92.2895 43.543 92.7218 43.2615 93.2007 43.0839C93.6797 42.9066 94.1675 42.818 94.6642 42.818C95.1963 42.818 95.6308 42.8467 95.9678 42.9045C96.3049 42.9621 96.5931 43.0396 96.8326 43.1372L96.5664 44.1084C96.1408 43.9044 95.5333 43.8023 94.7438 43.8023C94.3803 43.8023 94.0211 43.8688 93.6664 44.0019C93.3116 44.135 92.9946 44.3522 92.7151 44.6537C92.4359 44.9554 92.2119 45.35 92.0433 45.8378C91.8749 46.3256 91.7905 46.9242 91.7905 47.6337C91.7905 48.2722 91.8704 48.831 92.0301 49.3099C92.1897 49.7888 92.4093 50.1879 92.6885 50.5071C92.968 50.8265 93.2961 51.066 93.673 51.2255C94.05 51.3852 94.46 51.465 94.9035 51.465C95.3027 51.465 95.6508 51.4251 95.9479 51.3452C96.245 51.2654 96.4955 51.1635 96.6995 51.0394L96.9655 51.9041ZM83.2154 43.0706C83.5525 42.991 83.9161 42.9377 84.3064 42.9111C84.6966 42.8845 85.0823 42.8712 85.4637 42.8712C85.8718 42.8712 86.2864 42.9111 86.7076 42.991C87.1289 43.0706 87.5125 43.217 87.8583 43.4299C88.2042 43.6428 88.4858 43.9354 88.703 44.3079C88.9203 44.6804 89.029 45.1548 89.029 45.7314C89.029 46.299 88.927 46.7778 88.723 47.1681C88.519 47.5584 88.2485 47.8754 87.9115 48.1193C87.5744 48.3632 87.1887 48.5383 86.7542 48.6448C86.3196 48.7512 85.8718 48.8044 85.4104 48.8044C85.3661 48.8044 85.293 48.8044 85.191 48.8044C85.089 48.8044 84.9825 48.8022 84.8717 48.7978C84.7609 48.7932 84.6523 48.7866 84.5459 48.7778C84.4394 48.7689 84.364 48.76 84.3197 48.7512V52.2898H83.2154V43.0706ZM85.4903 43.8289C85.2597 43.8289 85.038 43.8335 84.8251 43.8422C84.6124 43.8512 84.4438 43.8734 84.3197 43.9088V47.7667C84.364 47.7844 84.4349 47.7956 84.5326 47.8C84.6301 47.8044 84.732 47.8089 84.8384 47.8133C84.9449 47.8177 85.047 47.8199 85.1445 47.8199C85.242 47.8199 85.3129 47.8199 85.3574 47.8199C85.6589 47.8199 85.9581 47.7911 86.2552 47.7334C86.5523 47.6758 86.8207 47.5717 87.0601 47.4209C87.2996 47.27 87.4925 47.0573 87.6387 46.7822C87.7851 46.5073 87.8583 46.157 87.8583 45.7314C87.8583 45.3677 87.7896 45.064 87.652 44.8201C87.5146 44.5762 87.3328 44.3811 87.1066 44.2348C86.8806 44.0884 86.6255 43.9842 86.3417 43.9221C86.0579 43.8601 85.7741 43.8289 85.4903 43.8289ZM75.505 42.9777H80.5737V43.962H76.6093V47.0084H80.241V47.9929H76.6093V51.3053H80.6402V52.2898H75.505V42.9777ZM72.7701 45.1061C72.7701 45.3278 72.7346 45.554 72.6637 45.7846C72.5928 46.0152 72.4863 46.2302 72.3443 46.4298C72.2025 46.6294 72.0208 46.8045 71.799 46.9552C71.5773 47.106 71.3157 47.2213 71.0141 47.3012V47.3544C71.2802 47.3987 71.5351 47.4741 71.779 47.5804C72.0229 47.6869 72.2381 47.8332 72.4242 48.0195C72.6105 48.2058 72.7612 48.4319 72.8766 48.698C72.9918 48.9641 73.0494 49.2789 73.0494 49.6426C73.0494 50.1214 72.9498 50.536 72.7502 50.8863C72.5506 51.2367 72.289 51.5226 71.9653 51.7444C71.6416 51.9661 71.2713 52.1301 70.8544 52.2366C70.4377 52.343 70.0119 52.3963 69.5773 52.3963C69.4266 52.3963 69.2492 52.3963 69.0453 52.3963C68.8413 52.3963 68.6284 52.3896 68.4067 52.3763C68.1849 52.363 67.9632 52.3453 67.7416 52.3231C67.5198 52.3008 67.3247 52.2676 67.1561 52.2233V43.0573C67.4844 43.0043 67.8657 42.9598 68.3003 42.9244C68.7348 42.8889 69.2093 42.8712 69.7237 42.8712C70.0697 42.8712 70.4221 42.8999 70.7814 42.9577C71.1405 43.0153 71.4665 43.1261 71.759 43.2902C72.0518 43.4543 72.2934 43.6827 72.4841 43.9753C72.6747 44.268 72.7701 44.645 72.7701 45.1061ZM69.6838 51.4384C69.9676 51.4384 70.2425 51.4051 70.5086 51.3386C70.7747 51.2721 71.0097 51.1658 71.2137 51.0194C71.4176 50.873 71.5794 50.6934 71.6992 50.4805C71.8189 50.2678 71.8788 50.015 71.8788 49.7222C71.8788 49.3587 71.8056 49.066 71.6592 48.8443C71.513 48.6225 71.3222 48.4497 71.0872 48.3254C70.8523 48.2013 70.5884 48.1171 70.2957 48.0728C70.0031 48.0283 69.7104 48.0062 69.4176 48.0062H68.2604V51.3452C68.3225 51.3631 68.4111 51.3764 68.5265 51.3852C68.6417 51.3941 68.7658 51.403 68.8989 51.4118C69.0319 51.4207 69.1694 51.4273 69.3114 51.4317C69.4532 51.4361 69.5773 51.4384 69.6838 51.4384ZM68.9521 47.075C69.1029 47.075 69.2848 47.0706 69.4975 47.0617C69.7104 47.0527 69.8878 47.0394 70.0297 47.0217C70.2425 46.9508 70.4421 46.8643 70.6283 46.7623C70.8146 46.6604 70.9808 46.5406 71.1272 46.4032C71.2735 46.2657 71.3887 46.106 71.4731 45.9243C71.5574 45.7424 71.5994 45.5451 71.5994 45.3322C71.5994 45.0396 71.544 44.7978 71.4332 44.6072C71.3222 44.4165 71.1737 44.2637 70.9874 44.1483C70.8013 44.0331 70.5884 43.951 70.3489 43.9021C70.1094 43.8534 69.8655 43.8289 69.6173 43.8289C69.3247 43.8289 69.0563 43.8356 68.8124 43.8489C68.5685 43.8622 68.3845 43.8821 68.2604 43.9088V47.075H68.9521ZM63.2105 45.9842L63.2904 44.9199H63.2371L62.6651 46.0106L58.1687 52.2898H57.5167V42.9777H58.6209V49.3631L58.5278 50.4141H58.581L59.1663 49.3232L63.6628 42.9777H64.3146V52.2898H63.2105V45.9842ZM53.5711 48.0195H49.1012V52.2898H47.997V42.9777H49.1012V47.035H53.5711V42.9777H54.6752V52.2898H53.5711V48.0195ZM42.6812 47.8865L43.027 49.0704H43.0935L43.3597 47.8465L45.1423 42.9777H46.273L43.9183 49.0305C43.679 49.6602 43.4684 50.1857 43.2865 50.6069C43.1047 51.0282 42.9207 51.3697 42.7344 51.6313C42.5481 51.8929 42.3485 52.0792 42.1358 52.19C41.9229 52.3008 41.6613 52.3563 41.3509 52.3563C41.0582 52.3563 40.8253 52.332 40.6525 52.2831C40.4795 52.2343 40.3176 52.1613 40.1668 52.0636L40.4995 51.1458C40.6768 51.2433 40.8409 51.3053 40.9917 51.3319C41.1424 51.3585 41.2798 51.3718 41.4041 51.3718C41.6524 51.3718 41.8608 51.2454 42.0294 50.9928C42.1978 50.74 42.3442 50.3653 42.4683 49.8686L39.0228 42.9777H40.2999L42.6812 47.8865ZM158.374 27.2992L158.475 25.8647H158.414L157.545 27.3396L153.949 31.9057H152.292V21.8038H154.919V26.6123L154.798 27.9863H154.878L155.707 26.5518L159.343 21.8038H161V31.9057H158.374V27.2992ZM155.565 17.6823C155.66 18.2076 155.818 18.578 156.04 18.7935C156.262 19.009 156.548 19.1168 156.899 19.1168C157.276 19.1168 157.575 19.009 157.798 18.7935C158.02 18.578 158.171 18.2144 158.252 17.7026L160.253 18.2076C160.091 19.0832 159.694 19.7331 159.061 20.1572C158.428 20.5816 157.687 20.7937 156.838 20.7937C156.421 20.7937 156.017 20.7466 155.626 20.6523C155.235 20.5581 154.885 20.4065 154.575 20.1977C154.266 19.989 154.003 19.7229 153.787 19.3996C153.572 19.0764 153.424 18.679 153.343 18.2076L155.565 17.6823ZM140.716 29.7036C141.12 29.7844 141.504 29.8248 141.867 29.8248C142.473 29.8248 142.898 29.7136 143.14 29.4913C143.383 29.2692 143.504 28.9222 143.504 28.4508C143.504 28.0198 143.383 27.6932 143.14 27.4711C142.898 27.2487 142.494 27.1376 141.928 27.1376C141.483 27.1376 141.079 27.1848 140.716 27.2791V29.7036ZM140.716 25.4002C141.039 25.3463 141.366 25.3091 141.695 25.289C142.026 25.2687 142.325 25.2587 142.595 25.2587C143.281 25.2587 143.854 25.3361 144.312 25.491C144.77 25.646 145.14 25.8647 145.423 26.1477C145.706 26.4306 145.908 26.7639 146.029 27.1478C146.15 27.5316 146.211 27.9458 146.211 28.3903C146.211 28.9964 146.13 29.5285 145.969 29.9864C145.807 30.4443 145.544 30.8248 145.181 31.1278C144.817 31.4309 144.346 31.6599 143.766 31.8148C143.187 31.9696 142.473 32.0472 141.625 32.0472C140.857 32.0472 140.194 32.0337 139.635 32.0068C139.076 31.9799 138.561 31.9461 138.089 31.9057V21.8038H140.716V25.4002ZM147.363 21.8038H149.989V31.9057H147.363V21.8038ZM133.159 27.9256H129.866V31.9057H127.24V21.8038H129.866V25.6022H133.159V21.8038H135.786V31.9057H133.159V27.9256ZM119.967 29.7036C120.371 29.7844 120.755 29.8248 121.118 29.8248C121.765 29.8248 122.233 29.7136 122.522 29.4913C122.812 29.2692 122.957 28.9222 122.957 28.4508C122.957 27.5754 122.364 27.1376 121.179 27.1376C120.734 27.1376 120.33 27.1848 119.967 27.2791V29.7036ZM119.967 25.4002C120.29 25.3463 120.617 25.3091 120.946 25.289C121.276 25.2687 121.576 25.2587 121.846 25.2587C122.546 25.2587 123.139 25.3361 123.624 25.491C124.108 25.646 124.502 25.8647 124.805 26.1477C125.108 26.4306 125.327 26.7639 125.462 27.1478C125.597 27.5316 125.664 27.9458 125.664 28.3903C125.664 29.6159 125.3 30.5319 124.573 31.138C123.846 31.7441 122.613 32.0472 120.876 32.0472C120.108 32.0472 119.445 32.0337 118.886 32.0068C118.327 31.9799 117.812 31.9461 117.34 31.9057V21.8038H119.967V25.4002ZM112.431 24.1273H110.431C110.35 25.0836 110.255 26.0332 110.148 26.976C110.04 27.9189 109.868 28.764 109.633 29.5116C109.397 30.2592 109.077 30.8652 108.673 31.33C108.269 31.7945 107.743 32.0269 107.097 32.0269C106.316 32.0269 105.763 31.926 105.44 31.7238L105.763 29.5419C105.979 29.6227 106.181 29.6631 106.37 29.6631C106.639 29.6631 106.875 29.5486 107.077 29.3196C107.279 29.0907 107.45 28.6798 107.592 28.0872C107.733 27.4946 107.848 26.6897 107.935 25.6729C108.023 24.656 108.087 23.3663 108.127 21.8038H115.057V31.9057H112.431V24.1273ZM96.8537 22.3898C97.3926 22.1473 98.0322 21.9554 98.7731 21.814C99.5139 21.6725 100.288 21.6018 101.097 21.6018C101.797 21.6018 102.383 21.686 102.854 21.8544C103.326 22.0227 103.699 22.2619 103.976 22.5717C104.252 22.8814 104.447 23.2519 104.561 23.6829C104.676 24.1139 104.733 24.5987 104.733 25.1375C104.733 25.7301 104.713 26.3261 104.673 26.9255C104.632 27.5249 104.609 28.1141 104.602 28.6933C104.595 29.2726 104.612 29.8348 104.652 30.3804C104.693 30.9258 104.794 31.441 104.955 31.926H102.814L102.389 30.5319H102.289C102.019 30.9495 101.645 31.3097 101.167 31.6128C100.689 31.9158 100.073 32.0673 99.3185 32.0673C98.8471 32.0673 98.4228 31.9966 98.0457 31.8552C97.6686 31.7137 97.3453 31.5117 97.076 31.2492C96.8066 30.9865 96.5978 30.6767 96.4496 30.3197C96.3015 29.9629 96.2275 29.5621 96.2275 29.1176C96.2275 28.4981 96.3654 27.976 96.6416 27.5519C96.9178 27.1275 97.315 26.784 97.8336 26.5214C98.3522 26.2587 98.9718 26.077 99.6924 25.9759C100.413 25.875 101.218 25.8446 102.107 25.885C102.201 25.1308 102.147 24.5887 101.945 24.2586C101.743 23.9286 101.292 23.7637 100.591 23.7637C100.066 23.7637 99.5105 23.8176 98.9245 23.9253C98.3388 24.0331 97.8571 24.1744 97.48 24.3495L96.8537 22.3898ZM100.187 29.9056C100.713 29.9056 101.13 29.7878 101.44 29.552C101.75 29.3162 101.979 29.0637 102.127 28.7944V27.4811C101.709 27.4407 101.309 27.4339 100.925 27.4608C100.541 27.4878 100.201 27.5485 99.9045 27.6427C99.6082 27.737 99.3724 27.8717 99.1973 28.0468C99.0222 28.2219 98.9348 28.4442 98.9348 28.7135C98.9348 29.0907 99.0458 29.3836 99.2681 29.5924C99.4904 29.8012 99.7967 29.9056 100.187 29.9056ZM86.0043 21.8038H87.9237L88.2268 23.0161H88.3076C88.6578 22.5043 89.0719 22.1272 89.5501 21.8848C90.0283 21.6422 90.6107 21.521 91.2977 21.521C92.5638 21.521 93.5134 21.9218 94.1464 22.7232C94.7794 23.5245 95.096 24.8142 95.096 26.5922C95.096 27.4542 94.995 28.2319 94.7928 28.9256C94.5908 29.6193 94.2913 30.2085 93.8939 30.6936C93.4965 31.1784 93.0116 31.5487 92.4391 31.8046C91.8668 32.0607 91.2101 32.1885 90.4693 32.1885C90.0518 32.1885 89.7083 32.1582 89.4389 32.0977C89.1696 32.037 88.9002 31.9395 88.6308 31.8046V35.9464H86.0043V21.8038ZM90.5097 23.7434C89.9979 23.7434 89.5971 23.8714 89.3076 24.1273C89.018 24.3832 88.7924 24.7672 88.6308 25.279V29.4812C88.8194 29.6294 89.0248 29.7474 89.247 29.8348C89.4693 29.9225 89.7622 29.9661 90.1258 29.9661C90.8802 29.9661 91.4459 29.7001 91.823 29.1681C92.2001 28.6361 92.3887 27.7573 92.3887 26.5315C92.3887 25.6426 92.2405 24.9557 91.9442 24.4707C91.6479 23.9858 91.1697 23.7434 90.5097 23.7434ZM83.8223 31.0369C83.4183 31.3602 82.8693 31.6329 82.1756 31.8552C81.4821 32.0774 80.7445 32.1885 79.9634 32.1885C78.3335 32.1885 77.1415 31.7137 76.3873 30.7641C75.6331 29.8147 75.2559 28.5115 75.2559 26.8547C75.2559 25.0769 75.6801 23.7434 76.5288 22.8545C77.3773 21.9656 78.5693 21.521 80.1047 21.521C80.6167 21.521 81.115 21.5883 81.5999 21.723C82.0847 21.8578 82.5157 22.08 82.8928 22.3898C83.2701 22.6995 83.5731 23.117 83.802 23.6425C84.031 24.1677 84.1455 24.821 84.1455 25.6022C84.1455 25.885 84.1287 26.1882 84.0951 26.5114C84.0613 26.8346 84.0109 27.1713 83.9435 27.5215H77.8824C77.9228 28.37 78.1416 29.0098 78.539 29.4408C78.9364 29.8718 79.5794 30.0873 80.4685 30.0873C81.0207 30.0873 81.5156 30.0033 81.9534 29.8348C82.3911 29.6664 82.7245 29.4947 82.9535 29.3196L83.8223 31.0369ZM80.0643 23.6222C79.3774 23.6222 78.869 23.8276 78.539 24.2385C78.2091 24.6492 78.0103 25.1981 77.943 25.885H81.7008C81.7547 25.1577 81.6437 24.5987 81.3675 24.2081C81.0915 23.8176 80.6571 23.6222 80.0643 23.6222ZM74.3063 34.209H72.387L72.0839 31.9057H65.2955L64.9924 34.209H63.0731V29.5823H64.2651C64.3729 29.4342 64.511 29.1815 64.6792 28.8247C64.8477 28.4677 65.0159 27.9794 65.1844 27.3599C65.3528 26.7403 65.4976 25.9725 65.6188 25.0566C65.74 24.1408 65.8005 23.0565 65.8005 21.8038H72.8315V29.5823H74.3063V34.209ZM70.205 29.7036V24.0262H68.0836C68.0567 24.5111 68.0095 25.0263 67.9421 25.5718C67.8748 26.1174 67.7906 26.6461 67.6897 27.1579C67.5886 27.6697 67.4708 28.1479 67.3361 28.5923C67.2014 29.0368 67.0532 29.4073 66.8916 29.7036H70.205ZM62.3054 31.0369C61.9013 31.3602 61.3524 31.6329 60.6587 31.8552C59.9651 32.0774 59.2276 32.1885 58.4465 32.1885C56.8166 32.1885 55.6246 31.7137 54.8704 30.7641C54.1162 29.8147 53.739 28.5115 53.739 26.8547C53.739 25.0769 54.1632 23.7434 55.0119 22.8545C55.8604 21.9656 57.0524 21.521 58.5878 21.521C59.0998 21.521 59.5981 21.5883 60.083 21.723C60.5678 21.8578 60.9988 22.08 61.3759 22.3898C61.7532 22.6995 62.0562 23.117 62.2851 23.6425C62.5141 24.1677 62.6286 24.821 62.6286 25.6022C62.6286 25.885 62.6118 26.1882 62.5782 26.5114C62.5444 26.8346 62.494 27.1713 62.4266 27.5215H56.3655C56.4059 28.37 56.6247 29.0098 57.0221 29.4408C57.4195 29.8718 58.0625 30.0873 58.9516 30.0873C59.5038 30.0873 59.9987 30.0033 60.4365 29.8348C60.8742 29.6664 61.2076 29.4947 61.4366 29.3196L62.3054 31.0369ZM58.5474 23.6222C57.8605 23.6222 57.3521 23.8276 57.0221 24.2385C56.6922 24.6492 56.4934 25.1981 56.4261 25.885H60.1839C60.2378 25.1577 60.1268 24.5987 59.8506 24.2081C59.5746 23.8176 59.1402 23.6222 58.5474 23.6222ZM44.7079 32.0269C44.479 32.1077 44.24 32.1549 43.9907 32.1684C43.7415 32.1819 43.5159 32.1885 43.3139 32.1885C42.0883 32.1885 41.1453 31.7507 40.4854 30.8753C39.8254 29.9999 39.4954 28.6597 39.4954 26.8547C39.4954 25.1308 39.859 23.8242 40.5865 22.9353C41.3138 22.0464 42.3643 21.6018 43.7382 21.6018C44.1153 21.6018 44.4386 21.6287 44.7079 21.6826V17.7631H47.294V21.7029C47.5365 21.6625 47.752 21.6355 47.9405 21.6221C48.1291 21.6086 48.311 21.6018 48.4861 21.6018C49.8194 21.6018 50.8229 21.9958 51.4963 22.7837C52.1699 23.5717 52.5066 24.8614 52.5066 26.6527C52.5066 27.5012 52.4156 28.2657 52.2338 28.9459C52.0519 29.626 51.786 30.2085 51.4358 30.6936C51.0856 31.1784 50.6579 31.5487 50.1529 31.8046C49.6477 32.0607 49.0652 32.1885 48.4053 32.1885C48.284 32.1885 48.1055 32.1785 47.8698 32.1582C47.6341 32.1381 47.4422 32.1011 47.294 32.0472V35.9464H44.7079V32.0269ZM47.9001 23.6829C47.7654 23.6829 47.6476 23.6929 47.5465 23.7131C47.4456 23.7333 47.321 23.7569 47.1728 23.7838V30.0469C47.2806 30.0738 47.4052 30.0907 47.5465 30.0975C47.688 30.1042 47.8396 30.1076 48.0012 30.1076C48.6477 30.1076 49.1225 29.8416 49.4254 29.3096C49.7285 28.7775 49.8801 27.892 49.8801 26.6527C49.8801 25.6022 49.732 24.8446 49.4357 24.3798C49.1394 23.9151 48.6274 23.6829 47.9001 23.6829ZM44.0008 30.1076C44.1489 30.1076 44.287 30.0975 44.415 30.0773C44.5429 30.0571 44.681 30.0334 44.8292 30.0065V23.7637C44.5733 23.7098 44.3106 23.6829 44.0412 23.6829C43.4216 23.6829 42.9468 23.9219 42.6169 24.4001C42.2869 24.8781 42.1219 25.6965 42.1219 26.8547C42.1219 27.9054 42.2734 28.7101 42.5765 29.2692C42.8795 29.8282 43.3543 30.1076 44.0008 30.1076ZM127.947 9.61689L128.048 8.18243H127.987L127.119 9.65729L123.522 14.2234H121.866V4.12147H124.492V8.93L124.371 10.3039H124.452L125.28 8.86947L128.917 4.12147H130.573V14.2234H127.947V9.61689ZM125.138 0C125.233 0.525266 125.391 0.895726 125.613 1.11122C125.836 1.32671 126.122 1.43446 126.472 1.43446C126.849 1.43446 127.149 1.32671 127.371 1.11122C127.593 0.895726 127.745 0.532081 127.826 0.0202837L129.826 0.52526C129.664 1.40086 129.267 2.05076 128.634 2.47493C128.001 2.89927 127.26 3.11135 126.411 3.11135C125.994 3.11135 125.59 3.06429 125.199 2.97001C124.808 2.87573 124.458 2.72417 124.148 2.51533C123.839 2.30665 123.576 2.04053 123.361 1.71729C123.145 1.39405 122.997 0.996652 122.916 0.52526L125.138 0ZM116.936 9.61689L117.037 8.18243H116.976L116.108 9.65729L112.511 14.2234H110.855V4.12147H113.481V8.93L113.36 10.3039H113.441L114.269 8.86947L117.906 4.12147H119.562V14.2234H116.936V9.61689ZM104.309 10.0412H103.601V14.2234H100.975V4.12147H103.601V8.42486L104.228 8.14202L106.592 4.12147H109.4L106.955 7.96028L105.925 8.72797L107.056 9.51595L109.784 14.2234H106.773L104.309 10.0412ZM99.3787 13.597C98.9747 13.8933 98.4864 14.119 97.9141 14.2738C97.3416 14.4288 96.7523 14.5062 96.1462 14.5062C95.3381 14.5062 94.6544 14.3784 94.0956 14.1223C93.5366 13.8664 93.082 13.5062 92.7319 13.0414C92.3815 12.5768 92.129 12.0144 91.9742 11.3545C91.8193 10.6945 91.7418 9.96722 91.7418 9.17243C91.7418 7.46195 92.1256 6.14529 92.8935 5.22263C93.6612 4.29997 94.779 3.83864 96.2473 3.83864C96.988 3.83864 97.584 3.89933 98.0353 4.02055C98.4864 4.14176 98.8939 4.29672 99.2575 4.48528L98.6313 6.62675C98.3215 6.4786 98.015 6.3642 97.7121 6.28339C97.409 6.20258 97.0622 6.16218 96.6714 6.16218C95.9441 6.16218 95.3919 6.40119 95.0148 6.8794C94.6377 7.35745 94.4492 8.1219 94.4492 9.17243C94.4492 9.60342 94.4962 10.0008 94.5905 10.3645C94.6848 10.7281 94.8263 11.0447 95.0148 11.3141C95.2034 11.5834 95.4492 11.7955 95.7522 11.9505C96.0553 12.1054 96.4089 12.1828 96.8129 12.1828C97.2574 12.1828 97.6345 12.1256 97.9443 12.011C98.254 11.8966 98.5302 11.7585 98.7727 11.5969L99.3787 13.597ZM87.297 10.2432H84.0039V14.2234H81.3774V4.12147H84.0039V7.91987H87.297V4.12147H89.9235V14.2234H87.297V10.2432ZM71.2958 4.70743C71.8347 4.46499 72.4743 4.27303 73.2152 4.13169C73.956 3.9902 74.7305 3.91945 75.5386 3.91945C76.239 3.91945 76.8249 4.00367 77.2963 4.1721C77.7677 4.34038 78.1416 4.57956 78.4176 4.88934C78.6938 5.19911 78.889 5.56957 79.0035 6.00056C79.118 6.43154 79.1752 6.9164 79.1752 7.45513C79.1752 8.04774 79.1551 8.64375 79.1147 9.24318C79.0743 9.8426 79.0506 10.4318 79.044 11.0109C79.0371 11.5902 79.054 12.1525 79.0944 12.6981C79.1348 13.2434 79.2359 13.7586 79.3975 14.2437H77.2559L76.8316 12.8496H76.7307C76.4613 13.2671 76.0874 13.6274 75.6094 13.9305C75.1312 14.2334 74.5149 14.385 73.7606 14.385C73.2892 14.385 72.8649 14.3143 72.4878 14.1729C72.1107 14.0314 71.7874 13.8294 71.5181 13.5668C71.2487 13.3041 71.0399 12.9944 70.8917 12.6374C70.7436 12.2805 70.6696 11.8797 70.6696 11.4353C70.6696 10.8157 70.8075 10.2937 71.0837 9.86954C71.3599 9.4452 71.7571 9.10168 72.2757 8.83913C72.7943 8.57641 73.4139 8.39467 74.1345 8.29358C74.855 8.19264 75.6598 8.16231 76.5487 8.20271C76.643 7.44848 76.5891 6.90634 76.3871 6.57629C76.1851 6.24623 75.7338 6.08137 75.0335 6.08137C74.5082 6.08137 73.9526 6.13524 73.3666 6.24299C72.7809 6.35073 72.2992 6.49206 71.9221 6.66715L71.2958 4.70743ZM74.6294 12.2233C75.1547 12.2233 75.5722 12.1054 75.882 11.8697C76.1919 11.6339 76.4209 11.3814 76.569 11.112V9.79879C76.1515 9.75838 75.7507 9.75157 75.3669 9.77851C74.983 9.80544 74.6429 9.86613 74.3466 9.96041C74.0503 10.0547 73.8145 10.1894 73.6394 10.3645C73.4643 10.5395 73.3769 10.7619 73.3769 11.0312C73.3769 11.4083 73.4879 11.7012 73.7102 11.9101C73.9325 12.1189 74.2388 12.2233 74.6294 12.2233ZM63.679 10.0412V8.20271H64.9114C65.3828 8.20271 65.7702 8.10843 66.0731 7.91987C66.3762 7.73132 66.5278 7.48207 66.5278 7.1723C66.5278 6.80866 66.3931 6.54935 66.1238 6.39454C65.8544 6.23957 65.4435 6.16218 64.8913 6.16218C64.3661 6.16218 63.9013 6.22951 63.4973 6.3642C63.0932 6.49888 62.7698 6.64022 62.5274 6.78837L61.9617 4.78823C62.3658 4.55927 62.9012 4.36066 63.5678 4.19222C64.2346 4.02395 64.9452 3.93974 65.6994 3.93974C66.8577 3.93974 67.7231 4.15523 68.2956 4.58621C68.8681 5.0172 69.1543 5.64356 69.1543 6.46513C69.1543 6.69409 69.1239 6.92646 69.0633 7.16224C69.0027 7.39785 68.9051 7.62357 68.7704 7.83906C68.6357 8.05456 68.4707 8.24652 68.2754 8.41479C68.0801 8.58323 67.8477 8.7145 67.5783 8.80878V8.88959C68.2922 9.05121 68.7973 9.33746 69.0936 9.74833C69.3899 10.159 69.5381 10.708 69.5381 11.3949C69.5381 11.8259 69.4506 12.2267 69.2755 12.597C69.1004 12.9674 68.8343 13.2873 68.4775 13.5566C68.1205 13.826 67.6726 14.0415 67.1339 14.2031C66.5952 14.3649 65.9553 14.4457 65.2146 14.4457C64.4738 14.4457 63.8306 14.3681 63.285 14.2133C62.7396 14.0584 62.285 13.8799 61.9213 13.6778L62.487 11.6373C62.7967 11.8124 63.1706 11.9539 63.6083 12.0616C64.0461 12.1694 64.5343 12.2233 65.0731 12.2233C66.2988 12.2233 66.9116 11.8327 66.9116 11.0513C66.9116 10.7012 66.7534 10.4453 66.4368 10.2836C66.1203 10.122 65.531 10.0412 64.669 10.0412H63.679ZM52.5468 4.70743C53.0857 4.46499 53.7254 4.27303 54.4663 4.13169C55.2071 3.9902 55.9816 3.91945 56.7897 3.91945C57.4901 3.91945 58.076 4.00367 58.5474 4.1721C59.0188 4.34038 59.3927 4.57956 59.6687 4.88934C59.9449 5.19911 60.1401 5.56957 60.2546 6.00056C60.369 6.43154 60.4263 6.9164 60.4263 7.45513C60.4263 8.04774 60.4062 8.64375 60.3658 9.24318C60.3254 9.8426 60.3017 10.4318 60.295 11.0109C60.2882 11.5902 60.3051 12.1525 60.3455 12.6981C60.3859 13.2434 60.487 13.7586 60.6486 14.2437H58.507L58.0827 12.8496H57.9817C57.7124 13.2671 57.3385 13.6274 56.8605 13.9305C56.3822 14.2334 55.7659 14.385 55.0117 14.385C54.5403 14.385 54.116 14.3143 53.7389 14.1729C53.3618 14.0314 53.0385 13.8294 52.7692 13.5668C52.4998 13.3041 52.291 12.9944 52.1428 12.6374C51.9946 12.2805 51.9206 11.8797 51.9206 11.4353C51.9206 10.8157 52.0586 10.2937 52.3348 9.86954C52.6109 9.4452 53.0082 9.10168 53.5268 8.83913C54.0454 8.57641 54.665 8.39467 55.3856 8.29358C56.1061 8.19264 56.9109 8.16231 57.7998 8.20271C57.8941 7.44848 57.8402 6.90634 57.6382 6.57629C57.4362 6.24623 56.9849 6.08137 56.2846 6.08137C55.7593 6.08137 55.2037 6.13524 54.6177 6.24299C54.0319 6.35073 53.5503 6.49206 53.1732 6.66715L52.5468 4.70743ZM55.8805 12.2233C56.4058 12.2233 56.8233 12.1054 57.1331 11.8697C57.443 11.6339 57.672 11.3814 57.8201 11.112V9.79879C57.4026 9.75838 57.0018 9.75157 56.618 9.77851C56.2341 9.80544 55.894 9.86613 55.5977 9.96041C55.3014 10.0547 55.0656 10.1894 54.8905 10.3645C54.7154 10.5395 54.628 10.7619 54.628 11.0312C54.628 11.4083 54.7389 11.7012 54.9613 11.9101C55.1836 12.1189 55.4899 12.2233 55.8805 12.2233Z" fill="white"/>
</svg>